<?xml version="1.0" standalone="no"?>
<!DOCTYPE svg PUBLIC "-//W3C//DTD SVG 20010904//EN"
 "http://www.w3.org/TR/2001/REC-SVG-20010904/DTD/svg10.dtd">
<svg version="1.0" xmlns="http://www.w3.org/2000/svg"
 width="1280.000000pt" height="864.000000pt" viewBox="0 0 1280.000000 864.000000"
 preserveAspectRatio="xMidYMid meet">
<metadata>
Created by potrace 1.15, written by Peter Selinger 2001-2017
</metadata>
<g transform="translate(0.000000,864.000000) scale(0.100000,-0.100000)"
fill="#000000" stroke="none">
<path d="M9060 8634 c-25 -2 -103 -9 -175 -15 -569 -48 -1215 -212 -1900 -484
-563 -223 -971 -431 -1989 -1012 -1883 -1075 -3096 -1949 -3751 -2704 l-40
-46 -90 37 c-239 97 -360 229 -360 395 0 87 23 128 100 180 70 46 145 74 382
141 107 30 223 67 256 83 241 109 511 352 589 527 52 118 60 207 27 306 -68
209 -299 333 -655 354 -143 8 -226 -9 -320 -66 -38 -23 -70 -43 -71 -45 -10
-8 74 -186 120 -256 31 -47 57 -93 57 -102 0 -26 -42 -88 -84 -125 -75 -66
-177 -107 -379 -152 -249 -56 -372 -101 -493 -182 -128 -85 -220 -213 -260
-358 -37 -138 -25 -361 28 -523 97 -295 342 -544 709 -720 l87 -41 5 -52 c11
-107 101 -325 223 -541 29 -51 113 -193 187 -315 273 -455 312 -547 418 -975
118 -478 222 -1073 294 -1678 14 -121 28 -230 31 -242 4 -22 8 -23 112 -23
294 0 566 87 1156 372 590 284 746 353 947 417 229 74 311 79 658 47 618 -59
836 -54 1171 27 85 20 100 21 145 10 86 -22 312 -52 510 -68 615 -48 799 -57
1025 -50 124 3 464 10 755 15 604 9 703 18 948 86 431 120 720 389 861 806 41
121 75 265 76 321 l0 37 64 0 c147 0 386 33 585 81 448 109 850 339 1128 647
48 53 119 126 157 162 246 233 294 294 371 473 49 113 76 209 102 357 26 147
23 495 -6 715 -145 1099 -613 2292 -1198 3057 -430 562 -911 908 -1438 1037
-233 56 -462 82 -775 86 -140 1 -275 1 -300 -1z"/>
</g>
</svg>
