<?xml version="1.0" standalone="no"?>
<!DOCTYPE svg PUBLIC "-//W3C//DTD SVG 20010904//EN"
 "http://www.w3.org/TR/2001/REC-SVG-20010904/DTD/svg10.dtd">
<svg version="1.0" xmlns="http://www.w3.org/2000/svg"
 width="843.000000pt" height="1280.000000pt" viewBox="0 0 843.000000 1280.000000"
 preserveAspectRatio="xMidYMid meet">
<metadata>
Created by potrace 1.15, written by Peter Selinger 2001-2017
</metadata>
<g transform="translate(0.000000,1280.000000) scale(0.100000,-0.100000)"
fill="#000000" stroke="none">
<path d="M2770 12794 c-321 -38 -552 -100 -761 -204 -455 -228 -792 -733 -943
-1410 -65 -293 -78 -439 -81 -880 -3 -419 -9 -483 -66 -686 -72 -256 -173
-461 -405 -816 -56 -86 -120 -187 -142 -225 -636 -1092 -450 -2342 527 -3545
69 -86 228 -256 400 -428 358 -360 431 -452 566 -715 123 -241 294 -729 410
-1170 134 -510 104 -932 -86 -1212 -123 -181 -214 -239 -412 -264 -107 -14
-230 -4 -539 43 -327 50 -548 41 -617 -24 -30 -27 -26 -52 16 -88 118 -104
500 -189 672 -149 25 5 76 24 115 41 38 16 95 33 126 35 49 5 60 3 79 -16 11
-11 21 -29 21 -38 0 -33 -38 -81 -86 -109 -43 -25 -60 -28 -183 -35 -147 -8
-209 -23 -336 -84 -184 -89 -333 -224 -311 -281 8 -22 69 -44 120 -44 131 0
293 53 676 218 321 139 445 182 551 189 111 8 139 -8 185 -106 20 -42 57 -107
82 -146 53 -79 193 -230 234 -251 82 -42 77 7 -18 193 -92 178 -105 213 -105
280 0 67 21 106 74 137 63 37 140 53 357 76 201 20 320 45 399 83 114 55 57
71 -361 97 -179 11 -232 24 -292 72 -141 113 -91 408 126 735 54 82 106 143
218 253 155 154 176 185 206 300 22 86 14 255 -20 444 -40 216 -34 358 20 475
87 191 286 222 443 69 109 -107 154 -215 206 -493 56 -307 81 -378 168 -494
133 -176 190 -278 242 -434 56 -168 69 -290 62 -587 -4 -167 -11 -278 -21
-321 -48 -217 -202 -349 -453 -388 -158 -24 -444 -7 -733 44 -276 49 -390 17
-279 -79 54 -46 163 -91 273 -112 79 -16 111 -16 280 -7 365 21 361 0 -39
-162 -248 -100 -361 -156 -407 -201 -69 -66 -45 -94 79 -94 218 0 705 129 964
255 199 97 293 79 344 -65 8 -24 26 -110 40 -191 27 -165 53 -232 99 -260 60
-37 88 -22 127 65 31 70 36 181 14 315 -18 116 -17 233 4 303 31 102 129 202
285 294 115 67 106 76 -84 84 -151 7 -187 19 -220 73 -26 43 -26 126 1 212 11
37 80 210 153 384 200 476 254 654 263 877 7 148 -12 252 -67 374 -71 159 -78
269 -25 374 48 95 138 165 278 214 61 21 91 25 192 26 101 1 131 -3 190 -22
153 -52 290 -130 590 -336 301 -208 445 -290 601 -341 112 -37 167 -34 331 19
273 87 424 87 684 1 106 -36 312 -140 456 -233 105 -66 185 -112 198 -112 3 0
5 6 5 14 0 21 -69 110 -265 341 -97 116 -199 242 -226 280 -144 206 -244 286
-439 354 -123 42 -186 56 -465 100 -137 22 -344 61 -460 86 -115 25 -354 78
-530 116 -501 110 -665 152 -950 246 -763 251 -1262 629 -1692 1284 -178 271
-301 577 -357 884 -96 523 20 989 341 1377 83 100 188 197 338 311 174 133
269 226 306 303 28 57 31 70 27 136 -5 102 -36 162 -218 418 -330 463 -522
770 -676 1080 -129 261 -138 289 -139 450 0 114 4 146 23 210 59 188 159 348
351 560 200 220 254 312 237 401 -3 21 -26 59 -55 93 -60 71 -76 122 -76 246
0 117 23 186 104 314 54 86 56 92 55 155 -1 79 -24 131 -92 203 -90 97 -233
173 -404 218 -81 21 -308 35 -398 24z"/>
<path d="M3705 12114 c-16 -8 -42 -32 -58 -54 -107 -151 -60 -391 98 -499 l50
-33 116 6 c146 7 194 -2 382 -70 163 -59 219 -67 237 -33 19 35 0 77 -79 177
-159 198 -246 269 -406 332 -42 17 -81 44 -133 93 -99 93 -146 112 -207 81z"/>
<path d="M4174 8637 c-3 -8 -1 -32 5 -53 40 -153 33 -263 -25 -382 -45 -93
-144 -194 -389 -399 -251 -210 -348 -316 -438 -483 -107 -198 -173 -541 -149
-773 47 -443 250 -860 662 -1359 445 -540 895 -838 1520 -1008 198 -54 309
-60 404 -22 40 16 66 57 66 105 0 13 11 45 25 73 35 70 93 105 242 148 146 41
185 59 218 98 26 31 45 86 45 131 0 15 -11 84 -25 153 -39 196 -36 214 52 282
115 91 158 202 118 299 -14 34 -230 262 -239 252 -2 -2 3 -40 11 -84 37 -205
-22 -378 -199 -590 -197 -235 -345 -363 -513 -445 -160 -78 -314 -104 -476
-81 -188 27 -254 98 -200 217 24 52 128 163 190 203 45 30 81 40 81 24 0 -11
-28 -50 -71 -104 -59 -71 -65 -88 -41 -112 73 -73 402 13 608 158 81 58 210
196 278 299 145 217 197 425 145 579 -37 109 -263 675 -379 948 -424 996 -802
1583 -1142 1773 -81 45 -315 153 -350 161 -20 5 -29 3 -34 -8z"/>
<path d="M6570 5310 c-28 -28 -25 -44 19 -115 45 -70 71 -128 71 -156 0 -29
-34 -24 -109 18 -79 43 -111 41 -141 -10 -26 -42 -25 -98 1 -172 60 -169 18
-377 -85 -420 -17 -7 -71 -23 -120 -34 -106 -25 -198 -72 -234 -119 -32 -42
-35 -109 -6 -167 44 -91 306 -193 592 -230 104 -14 133 -14 294 1 208 18 256
14 388 -40 108 -44 149 -51 195 -36 44 14 103 65 116 97 12 31 -10 83 -55 133
-41 46 -51 72 -36 100 16 31 57 42 125 36 64 -7 76 -3 94 31 32 61 -3 147 -99
243 -83 84 -487 346 -505 328 -3 -3 20 -40 52 -84 124 -173 173 -274 173 -357
0 -85 -71 -192 -166 -253 -93 -60 -171 -79 -319 -78 -154 0 -233 17 -350 74
-94 45 -142 89 -151 136 -8 42 18 89 65 121 79 54 153 37 195 -44 42 -83 91
-113 181 -113 95 0 233 58 301 126 82 81 71 170 -47 404 -125 248 -258 459
-353 563 -40 42 -57 46 -86 17z"/>
</g>
</svg>
