<?xml version="1.0" standalone="no"?>
<!DOCTYPE svg PUBLIC "-//W3C//DTD SVG 20010904//EN"
 "http://www.w3.org/TR/2001/REC-SVG-20010904/DTD/svg10.dtd">
<svg version="1.0" xmlns="http://www.w3.org/2000/svg"
 width="1280.000000pt" height="640.000000pt" viewBox="0 0 1280.000000 640.000000"
 preserveAspectRatio="xMidYMid meet">
<metadata>
Created by potrace 1.15, written by Peter Selinger 2001-2017
</metadata>
<g transform="translate(0.000000,640.000000) scale(0.100000,-0.100000)"
fill="#000000" stroke="none">
<path d="M12405 5030 c-209 -49 -1242 -287 -2295 -530 -1053 -243 -2021 -466
-2150 -496 -129 -29 -238 -54 -241 -54 -4 0 -38 -53 -74 -117 -37 -65 -69
-119 -70 -121 -2 -2 -30 11 -64 27 l-61 31 0 69 0 68 -606 394 c-334 217 -610
395 -615 397 -4 2 -11 -17 -14 -42 -4 -25 -9 -46 -11 -46 -1 0 -45 23 -96 50
l-93 51 -144 -34 -145 -34 -16 -59 -17 -59 -154 -12 c-85 -7 -200 -21 -257
-31 l-102 -20 -19 26 -18 25 -147 -38 c-81 -21 -152 -43 -159 -49 -23 -19
-101 -240 -233 -655 -103 -321 -133 -405 -149 -412 -11 -5 -861 -202 -1890
-439 -1028 -237 -1873 -434 -1878 -439 -8 -8 -685 -1195 -683 -1198 1 -1 158
31 713 146 134 28 351 73 483 101 132 27 348 72 480 100 132 27 348 72 480
100 132 27 348 72 480 100 132 27 348 72 480 100 132 27 348 72 480 100 132
27 348 72 480 100 132 27 349 73 482 101 134 28 261 53 283 55 38 5 62 -9 430
-237 l390 -242 295 22 c667 49 1086 81 1104 84 16 2 38 70 146 447 84 294 132
446 141 448 8 2 1100 234 2427 515 l2412 512 271 570 c334 704 339 715 331
714 -4 0 -178 -40 -387 -89z"/>
</g>
</svg>
