<?xml version="1.0" encoding="utf-8"?>
<!-- Generator: Adobe Illustrator 19.1.0, SVG Export Plug-In . SVG Version: 6.00 Build 0)  -->
<svg version="1.1" id="Layer_1" xmlns="http://www.w3.org/2000/svg" xmlns:xlink="http://www.w3.org/1999/xlink" x="0px" y="0px"
	 viewBox="0 0 64 64" enable-background="new 0 0 64 64" xml:space="preserve">
<path id="Telescope" d="M61.5347633,12.7312555L54.4732666,0.5002556c-0.1328011-0.2295-0.3516006-0.3974-0.6074028-0.4658
	c-0.2558975-0.0698-0.5292969-0.0332-0.7587929,0.0996l-11.4258041,6.5962
	c-1.4258003,0.8237-2.4463005,2.1537995-2.8740005,3.7456002c-0.1079025,0.4031-0.1739006,0.8105993-0.1996994,1.2174997
	c-0.0689011,0.0218-0.1397018,0.0314999-0.2046013,0.0691004L9.8121662,28.2693558
	c-0.2294998,0.1327991-0.3975,0.3509998-0.4659004,0.607399c-0.0682993,0.2563-0.0331945,0.5293007,0.0996008,0.7588005
	l0.7980995,1.3822994l-6.4425998,3.719202c-0.6698999,0.3891983-1.1698999,1.0410995-1.3710999,1.7885971
	c-0.201195,0.75-0.0936999,1.5659027,0.2959001,2.2393036c0.3936,0.6810989,1.0282998,1.1683998,1.7881,1.3719978
	c0.2539001,0.0679016,0.5116997,0.1016006,0.7676001,0.1016006c0.5096998,0,1.0137-0.1343002,1.4667997-0.3959999
	l6.4430995-3.7200012l0.7981005,1.3820992c0.1855001,0.3208008,0.5214996,0.5,0.8672047,0.5
	c0.1698952,0,0.341795-0.0429001,0.4990005-0.1337967l12.0814953-6.9752026
	c0.1337986,0.5369015,0.3395996,1.0531006,0.6166992,1.5328999c0.8565006,1.4838028,2.2861996,2.5135994,4.0244999,2.8994026
	c0.1969986,0.0437965,0.3956985,0.0720978,0.5946999,0.0980988L20.8843651,61.2873573
	c-0.2284985,0.5029984-0.0067997,1.0956993,0.4951,1.3251991c0.1348,0.0615997,0.2754002,0.089901,0.4141006,0.089901
	c0.3799,0,0.7432003-0.2168007,0.9111004-0.5850029L33.126564,39.2546539v23.7456017c0,0.5527992,0.4473,0.9999962,1,0.9999962
	s1-0.447197,1-0.9999962V39.0640564l11.017601,23.0690002c0.1719055,0.3593979,0.5293007,0.5694008,0.9033012,0.5694008
	c0.1445007,0,0.2910004-0.0313034,0.4296989-0.097702c0.4990005-0.2383003,0.7099991-0.8348999,0.4716988-1.3330002
	L35.5022659,35.2096558c0.5695992-0.1632004,1.1264992-0.3925018,1.6556015-0.6977005
	c1.5672989-0.9047012,2.7206993-2.3212013,3.2450981-3.9892006c0.5351067-1.6991997,0.3583984-3.4521999-0.4990997-4.9345989
	c-0.2765999-0.4804001-0.6206017-0.9169998-1.0185013-1.3017006l5.0615005-2.9223995
	c0.1441002-0.0832996,0.2509995-0.2077999,0.3373985-0.3465996c0.2551003,0.1064987,0.507103,0.2195988,0.7788086,0.2924004
	c0.531292,0.1415997,1.0693932,0.2118988,1.6054916,0.2118988c1.0693016,0,2.1240005-0.2803001,3.0741997-0.8285999
	l11.4258003-6.5956993C61.6470718,13.8210554,61.8111649,13.2097559,61.5347633,12.7312555z M5.7476664,38.1106567
	c-0.2168002,0.1259995-0.4706998,0.1595993-0.7157998,0.0942001c-0.2432003-0.065403-0.4473-0.2217026-0.5752001-0.4438019
	c-0.125-0.2154007-0.1592002-0.4766006-0.0946999-0.7168007c0.0643997-0.2406998,0.2264996-0.4511986,0.4413996-0.5756989
	l6.4409003-3.7184982l0.9471998,1.6400986L5.7476664,38.1106567z M38.1714668,26.587656
	c0.5741997,0.9921989,0.6884995,2.1763,0.3241997,3.3344994c-0.3740005,1.1890011-1.2050018,2.2035999-2.3377991,2.8574009
	c-1.1319008,0.653801-2.4239006,0.8666992-3.6456032,0.596199c-1.1844978-0.2631989-2.1532993-0.9546013-2.7254982-1.9471989
	c-0.2805996-0.4859009-0.4489994-1.0303001-0.5065994-1.5967007l7.7623978-4.4817009
	C37.504467,25.6825562,37.8909645,26.1008549,38.1714668,26.587656z M36.7832642,23.1902561
	c-0.0907974,0.0220985-0.1791916,0.0538998-0.2621918,0.1014996l-8.7627068,5.0590992
	c-0.0830002,0.0481014-0.1551991,0.1091003-0.2196999,0.1767998l-12.3163996,7.1107998l-0.7974005-1.380497l-0.0001993-0.0013008
	l-1.9475002-3.3731003c0,0-0.0017004-0.0017014-0.0024004-0.0027008l-0.7963991-1.3791008L38.5367661,13.994956l3.5438995,6.1366987
	L36.7832642,23.1902561z M48.7427635,18.9607563c-0.9501991,0.5482998-2.1024971,0.7006989-3.1630974,0.4169998
	c-1.0595016-0.2837009-1.982399-0.9917011-2.5312004-1.9419003l-1.892601-3.2783003
	c-0.5565987-0.9644003-0.705101-2.0883999-0.4169998-3.1636c0.2891006-1.0762005,0.9785004-1.9751005,1.9424019-2.5318003
	l6.2523994-3.6092997l5.8876991,10.5987997L48.7427635,18.9607563z M56.5538635,14.4516554L50.6658669,3.8528554
	l2.5749969-1.4863999l6.0615005,10.4986L56.5538635,14.4516554z"/>
<g>
</g>
<g>
</g>
<g>
</g>
<g>
</g>
<g>
</g>
<g>
</g>
<g>
</g>
<g>
</g>
<g>
</g>
<g>
</g>
<g>
</g>
<g>
</g>
<g>
</g>
<g>
</g>
<g>
</g>
</svg>
