<?xml version="1.0" encoding="UTF-8" standalone="no"?>
<!-- Created with Inkscape (http://www.inkscape.org/) -->

<svg
   width="210mm"
   height="297mm"
   viewBox="0 0 210 297"
   version="1.1"
   id="svg1766"
   inkscape:version="1.1 (c68e22c387, 2021-05-23)"
   sodipodi:docname="bepi.svg"
   xmlns:inkscape="http://www.inkscape.org/namespaces/inkscape"
   xmlns:sodipodi="http://sodipodi.sourceforge.net/DTD/sodipodi-0.dtd"
   xmlns="http://www.w3.org/2000/svg"
   xmlns:svg="http://www.w3.org/2000/svg">
  <sodipodi:namedview
     id="namedview1768"
     pagecolor="#ffffff"
     bordercolor="#666666"
     borderopacity="1.0"
     inkscape:pageshadow="2"
     inkscape:pageopacity="0.0"
     inkscape:pagecheckerboard="0"
     inkscape:document-units="mm"
     showgrid="false"
     inkscape:zoom="0.52410025"
     inkscape:cx="20.034335"
     inkscape:cy="451.24955"
     inkscape:window-width="1920"
     inkscape:window-height="1017"
     inkscape:window-x="-8"
     inkscape:window-y="-8"
     inkscape:window-maximized="1"
     inkscape:current-layer="layer1" />
  <defs
     id="defs1763" />
  <g
     inkscape:label="Layer 1"
     inkscape:groupmode="layer"
     id="layer1">
    <path
       style="fill:#000000;fill-opacity:1;stroke:#000000;stroke-width:0.264583px;stroke-linecap:butt;stroke-linejoin:miter;stroke-opacity:1"
       d="m 9.9951922,190.99431 76.6468468,11.80929 -1.072771,-5.99489 6.562836,-0.94657 -4.361823,-12.40888 c 0,0 1.115536,-4.14981 1.650992,-5.66695 0.535456,-1.51713 5.265325,-7.27333 5.666917,-7.76417 0.401593,-0.49083 7.67488,-4.953 9.37049,-5.22073 1.69562,-0.26773 8.61193,-0.53546 9.63822,-0.35697 1.0263,0.17849 5.30995,1.87411 6.38086,2.72192 1.07092,0.84781 3.03426,4.10519 3.03426,4.10519 l -0.71394,19.67814 5.04221,-0.75857 3.61434,23.42624 65.28109,9.77208 0.0446,21.55213 -61.84525,-9.45973 0.80318,4.46214 -42.434945,6.64859 -1.740236,-11.19998 -81.389421,-12.27088 z"
       id="path1872" />
  </g>
</svg>
