<?xml version="1.0" encoding="UTF-8" standalone="no"?>
<!-- Created with Inkscape (http://www.inkscape.org/) -->

<svg
   width="210mm"
   height="297mm"
   viewBox="0 0 210 297"
   version="1.1"
   id="svg5"
   inkscape:version="1.1 (c68e22c387, 2021-05-23)"
   sodipodi:docname="EarthCreature_plain.svg"
   xmlns:inkscape="http://www.inkscape.org/namespaces/inkscape"
   xmlns:sodipodi="http://sodipodi.sourceforge.net/DTD/sodipodi-0.dtd"
   xmlns="http://www.w3.org/2000/svg"
   xmlns:svg="http://www.w3.org/2000/svg">
  <sodipodi:namedview
     id="namedview7"
     pagecolor="#ffffff"
     bordercolor="#666666"
     borderopacity="1.0"
     inkscape:pageshadow="2"
     inkscape:pageopacity="0.0"
     inkscape:pagecheckerboard="0"
     inkscape:document-units="mm"
     showgrid="false"
     inkscape:snap-others="false"
     showguides="false"
     inkscape:zoom="2.7865882"
     inkscape:cx="389.1856"
     inkscape:cy="230.0304"
     inkscape:window-width="1920"
     inkscape:window-height="986"
     inkscape:window-x="-11"
     inkscape:window-y="-11"
     inkscape:window-maximized="1"
     inkscape:current-layer="g843" />
  <defs
     id="defs2">
    <linearGradient
       id="linearGradient21803"
       inkscape:swatch="solid">
      <stop
         style="stop-color:#2ad4ff;stop-opacity:1;"
         offset="0"
         id="stop21801" />
    </linearGradient>
  </defs>
  <g
     inkscape:label="Layer 1"
     inkscape:groupmode="layer"
     id="layer1"
     style="display:inline">
    <g
       id="g843"
       style="display:inline">
      <ellipse
         style="display:inline;opacity:1;fill:#2ad4ff;fill-opacity:1;stroke:#2ad4ff;stroke-width:1;stroke-miterlimit:4;stroke-dasharray:none;stroke-dashoffset:0;stroke-opacity:1"
         id="path14977"
         cx="100.07609"
         cy="94.37915"
         rx="52.981457"
         ry="52.601662" />
      <path
         style="display:inline;opacity:1;fill:#b5e61d;fill-opacity:1;stroke:#b5e61d;stroke-width:3.83628;stroke-miterlimit:4;stroke-dasharray:none;stroke-dashoffset:0;stroke-opacity:1"
         d="m 508.67772,504.21166 c -1.68764,-1.68764 -1.45225,-4.22248 1.32398,-14.25776 4.67347,-16.89324 6.10546,-29.00801 6.08357,-51.46767 -0.0158,-16.21805 -0.40321,-22.32791 -1.75634,-27.69932 -4.2118,-16.71925 -6.28652,-17.57228 -37.77966,-15.53339 -15.56392,1.00761 -20.10243,0.12105 -25.81905,-5.04357 -2.13465,-1.92853 -4.96322,-5.90057 -6.28571,-8.82676 -2.14332,-4.74238 -2.39975,-6.75379 -2.36051,-18.51553 0.0372,-11.14902 0.47432,-14.76029 2.81892,-23.28809 5.40519,-19.65986 16.74696,-42.45068 26.35951,-52.96834 13.76551,-15.06166 36.92956,-25.4353 65.86437,-29.49627 10.45675,-1.4676 12.25714,-1.50016 13.48079,-0.2438 2.40354,2.46778 12.36841,23.30099 15.74401,32.91546 8.03621,22.88891 11.21323,41.64684 11.26598,66.51724 0.11359,53.56141 -19.1553,100.58458 -57.30922,139.85548 -8.31065,8.55395 -9.97601,9.70695 -11.63064,8.05232 z"
         id="path21533"
         transform="scale(0.26458333)" />
      <path
         style="display:inline;opacity:1;fill:#b5e61d;fill-opacity:1;stroke:#b5e61d;stroke-width:3.83628;stroke-miterlimit:4;stroke-dasharray:none;stroke-dashoffset:0;stroke-opacity:1"
         d="m 260.85871,414.43688 c -10.18264,-1.71575 -21.47661,-6.90094 -77.80491,-35.72107 -4.05067,-2.07251 -4.41126,-3.83046 -4.41126,-21.50562 0,-43.94132 13.34454,-84.06054 39.6655,-119.25091 7.15267,-9.56291 24.81331,-28.86631 26.40974,-28.86631 0.50364,0 0.91571,3.34277 0.91571,7.42838 0,13.93432 6.34102,28.41361 17.21759,39.31521 8.11341,8.13207 17.65551,13.23741 42.66826,22.82896 19.49853,7.47703 26.17102,10.54777 31.3194,14.41348 5.42501,4.07343 6.24159,7.24201 5.13894,19.94077 -1.30613,15.0421 -3.46424,24.02756 -8.10732,33.75561 -4.7971,10.05071 -10.38429,15.36827 -20.05153,19.0839 -14.51705,5.57966 -25.80384,19.11222 -31.08114,37.2655 -2.8797,9.90582 -9.60096,13.38092 -21.87898,11.3121 z"
         id="path21572"
         transform="scale(0.26458333)" />
      <path
         style="display:inline;opacity:1;fill:#b5e61d;fill-opacity:1;stroke:#b5e61d;stroke-width:3.83628;stroke-miterlimit:4;stroke-dasharray:none;stroke-dashoffset:0;stroke-opacity:1"
         d="M 339.01482,551.21584 C 300.90858,543.15881 270.92568,527.88905 242.07184,501.8445 228.41505,489.51737 206.7281,462.16017 209.419,460.65427 c 2.35889,-1.3201 27.69222,-5.7882 39.70974,-7.0037 20.95855,-2.11982 39.87473,0.60374 47.24063,6.80174 4.10516,3.45426 8.85545,10.4423 10.76224,15.83206 1.04547,2.95512 1.59527,8.9865 1.7359,19.04267 0.19531,13.96634 0.3565,15.02862 3.15752,20.8078 3.59328,7.41384 19.67736,23.91081 30.99259,31.78818 8.36302,5.82212 8.28056,5.88996 -4.0028,3.29282 z"
         id="path21611"
         transform="scale(0.26458333)" />
    </g>
    <ellipse
       style="display:inline;opacity:1;fill:#ffffff;fill-opacity:1;stroke:#ffffff;stroke-width:1;stroke-miterlimit:4;stroke-dasharray:none;stroke-dashoffset:0;stroke-opacity:1"
       id="path26341"
       cx="86.743561"
       cy="93.188896"
       rx="7.2510095"
       ry="13.427794" />
    <ellipse
       style="display:inline;fill:#ffffff;fill-opacity:1;stroke:#ffffff;stroke-width:1;stroke-miterlimit:4;stroke-dasharray:none;stroke-dashoffset:0;stroke-opacity:1"
       id="ellipse26427-3"
       cx="115.84769"
       cy="93.449516"
       rx="7.2510095"
       ry="13.427794" />
    <path
       style="display:inline;fill:none;stroke:#000000;stroke-width:2.265;stroke-linecap:butt;stroke-linejoin:miter;stroke-miterlimit:4;stroke-dasharray:none;stroke-opacity:1"
       d="m 92.114673,120.31304 c 0,0 6.446991,0 9.670487,0 3.22185,0 9.66554,0 9.66554,0"
       id="path26819"
       sodipodi:nodetypes="cac" />
    <g
       id="g27483"
       style="display:inline">
      <ellipse
         style="opacity:1;fill:#000000;fill-opacity:1;stroke:#000000;stroke-width:1;stroke-miterlimit:4;stroke-dasharray:none;stroke-dashoffset:0;stroke-opacity:1"
         id="path26967"
         cx="87.162277"
         cy="100.03707"
         rx="5.2368402"
         ry="4.9682841" />
      <ellipse
         style="opacity:1;fill:#ffffff;fill-opacity:1;stroke:#ffffff;stroke-width:1;stroke-miterlimit:4;stroke-dasharray:none;stroke-dashoffset:0;stroke-opacity:1"
         id="path27237"
         cx="89.596962"
         cy="97.066177"
         rx="0.5035423"
         ry="0.48675758"
         inkscape:label="path27237" />
    </g>
    <g
       id="g27489"
       transform="translate(28.575012)"
       style="display:inline">
      <ellipse
         style="opacity:1;fill:#000000;fill-opacity:1;stroke:#000000;stroke-width:1;stroke-miterlimit:4;stroke-dasharray:none;stroke-dashoffset:0;stroke-opacity:1"
         id="ellipse27485"
         cx="87.162277"
         cy="100.03707"
         rx="5.2368402"
         ry="4.9682841" />
      <ellipse
         style="opacity:1;fill:#ffffff;fill-opacity:1;stroke:#ffffff;stroke-width:1;stroke-miterlimit:4;stroke-dasharray:none;stroke-dashoffset:0;stroke-opacity:1"
         id="ellipse27487"
         cx="89.596962"
         cy="97.066177"
         rx="0.5035423"
         ry="0.48675758" />
    </g>
  </g>
</svg>
